<svg width="128" height="128" fill="none" xmlns="http://www.w3.org/2000/svg"><g clip-path="url(#clip0_3984_10982)"><g clip-path="url(#clip1_3984_10982)"><path fill-rule="evenodd" clip-rule="evenodd" d="M110 103.953V61.999H60v2C33.49 64 12 85.49 12 112v8a8 8 0 008 8h40c20.232 0 38.272-9.389 50-24.047z" fill="url(#paint0_radial_3984_10982)"/><path fill-rule="evenodd" clip-rule="evenodd" d="M110 103.953V61.999H60v2C33.49 64 12 85.49 12 112v8a8 8 0 008 8h40c20.232 0 38.272-9.389 50-24.047z" fill="url(#paint1_radial_3984_10982)" fill-opacity=".5"/><path d="M60 0H20a8 8 0 00-8 8v8c0 26.51 21.49 48 48 48h18c17.673 0 32 14.326 32 32 0 3.414-.535 6.703-1.525 9.788C118.15 94.576 124 79.971 124 64c0-35.347-28.654-64-64-64z" fill="url(#paint2_radial_3984_10982)"/><path d="M60 0H20a8 8 0 00-8 8v8c0 26.51 21.49 48 48 48h18c17.673 0 32 14.326 32 32 0 3.414-.535 6.703-1.525 9.788C118.15 94.576 124 79.971 124 64c0-35.347-28.654-64-64-64z" fill="url(#paint3_radial_3984_10982)" fill-opacity=".5"/></g></g><defs><radialGradient id="paint0_radial_3984_10982" cx="0" cy="0" r="1" gradientUnits="userSpaceOnUse" gradientTransform="matrix(80.9996 -65.99978 80.92054 99.31142 12 132.668)"><stop offset=".045" stop-color="#AD7DFF"/><stop offset=".328" stop-color="#6864F6"/><stop offset=".571" stop-color="#5750E2"/><stop offset=".809" stop-color="#3E36B1"/><stop offset="1" stop-color="#261D82"/></radialGradient><radialGradient id="paint1_radial_3984_10982" cx="0" cy="0" r="1" gradientUnits="userSpaceOnUse" gradientTransform="rotate(-160.304 70.444 52.5) scale(120.476)"><stop offset=".706" stop-color="#AC80FF" stop-opacity="0"/><stop offset=".921" stop-color="#BD96FF"/></radialGradient><radialGradient id="paint2_radial_3984_10982" cx="0" cy="0" r="1" gradientUnits="userSpaceOnUse" gradientTransform="rotate(38.202 .432 19.254) scale(142.524 117.775)"><stop stop-color="#FFC470"/><stop offset=".251" stop-color="#FF835C"/><stop offset=".584" stop-color="#F24A9D"/><stop offset=".871" stop-color="#B339F0"/><stop offset="1" stop-color="#C354FF"/></radialGradient><radialGradient id="paint3_radial_3984_10982" cx="0" cy="0" r="1" gradientUnits="userSpaceOnUse" gradientTransform="rotate(-145.12 43.372 36.73) scale(111.334 105.726)"><stop offset=".709" stop-color="#FFB357" stop-opacity="0"/><stop offset=".942" stop-color="#FFB357"/></radialGradient><clipPath id="clip0_3984_10982"><path fill="#fff" d="M0 0h128v128H0z"/></clipPath><clipPath id="clip1_3984_10982"><path fill="#fff" d="M0 0h128v128H0z"/></clipPath></defs></svg>