<svg width="20" height="20" fill="none" xmlns="http://www.w3.org/2000/svg"><path d="M16 14H5v3a1 1 0 001 1h8a2 2 0 002-2v-2z" fill="#929292"/><path d="M16 14H5v3a1 1 0 001 1h8a2 2 0 002-2v-2z" fill="url(#paint0_linear_8162_266960)"/><path d="M6 2a2 2 0 00-2 2v12a2 2 0 002 2 1 1 0 110-2h8a2 2 0 002-2V4a2 2 0 00-2-2H6z" fill="#CACACA"/><path d="M6 2a2 2 0 00-2 2v12a2 2 0 002 2 1 1 0 110-2h8a2 2 0 002-2V4a2 2 0 00-2-2H6z" fill="url(#paint1_linear_8162_266960)"/><path d="M6 2a2 2 0 00-2 2v12a2 2 0 002 2 1 1 0 110-2h8a2 2 0 002-2V4a2 2 0 00-2-2H6z" fill="url(#paint2_radial_8162_266960)"/><path d="M6.75 4a.75.75 0 00-.75.75v.5c0 .414.336.75.75.75h6.5a.75.75 0 00.75-.75v-.5a.75.75 0 00-.75-.75h-6.5z" fill="url(#paint3_linear_8162_266960)" fill-opacity=".95"/><defs><linearGradient id="paint0_linear_8162_266960" x1="5.733" y1="15" x2="28.467" y2="15" gradientUnits="userSpaceOnUse"><stop offset=".056" stop-color="#5029CE"/><stop offset=".355" stop-color="#9550F3"/><stop offset=".565" stop-color="#C16DFA"/></linearGradient><linearGradient id="paint1_linear_8162_266960" x1="-5.843" y1="36.986" x2="26.909" y2="8.364" gradientUnits="userSpaceOnUse"><stop stop-color="#BD4AF9"/><stop offset=".465" stop-color="#4B8AFF"/><stop offset=".904" stop-color="#41E2B5"/></linearGradient><linearGradient id="paint3_linear_8162_266960" x1="10.737" y1="6.938" x2="9.938" y2="3.513" gradientUnits="userSpaceOnUse"><stop offset=".024" stop-color="#FFC8D7"/><stop offset=".807" stop-color="#fff"/></linearGradient><radialGradient id="paint2_radial_8162_266960" cx="0" cy="0" r="1" gradientUnits="userSpaceOnUse" gradientTransform="matrix(-15.27267 -38.39999 30.51588 -12.13696 20.364 24.4)"><stop stop-color="#FFC470"/><stop offset=".251" stop-color="#FF835C"/><stop offset=".584" stop-color="#F24A9D"/><stop offset=".871" stop-color="#B339F0"/><stop offset="1" stop-color="#C354FF"/></radialGradient></defs></svg>