<svg width="20" height="20" fill="none" xmlns="http://www.w3.org/2000/svg"><path fill-rule="evenodd" clip-rule="evenodd" d="M5 15v1.5a.5.5 0 00.5.5h11a.5.5 0 00.5-.5v-11a.5.5 0 00-.5-.5H15v9.5a.5.5 0 01-.5.5H5z" fill="#fff"/><path d="M3 3.5a.5.5 0 01.5-.5h11a.5.5 0 01.5.5v11a.5.5 0 01-.5.5h-11a.5.5 0 01-.5-.5v-11z" fill="#fff"/><path d="M11.285 8.571a.5.5 0 010 .858l-3.528 2.117a.5.5 0 01-.757-.43V6.884a.5.5 0 01.757-.429l3.528 2.117z" fill="url(#paint0_linear_362552_1692)"/><path d="M11.285 8.571a.5.5 0 010 .858l-3.528 2.117a.5.5 0 01-.757-.43V6.884a.5.5 0 01.757-.429l3.528 2.117z" fill="url(#paint1_linear_362552_1692)"/><path opacity=".67" fill-rule="evenodd" clip-rule="evenodd" d="M14.5 2h-11A1.5 1.5 0 002 3.5v11A1.5 1.5 0 003.5 16H4v.5A1.5 1.5 0 005.5 18h11a1.5 1.5 0 001.5-1.5v-11A1.5 1.5 0 0016.5 4H16v-.5A1.5 1.5 0 0014.5 2zm.5 3V3.5a.5.5 0 00-.5-.5h-11a.5.5 0 00-.5.5v11a.5.5 0 00.5.5h11a.5.5 0 00.5-.5V5zM5 16h9.5a1.5 1.5 0 001.5-1.5V5h.5a.5.5 0 01.5.5v11a.5.5 0 01-.5.5h-11a.5.5 0 01-.5-.5V16z" fill="#605E5C"/><defs><linearGradient id="paint0_linear_362552_1692" x1="7.568" y1="7.173" x2="8.774" y2="9.419" gradientUnits="userSpaceOnUse"><stop stop-color="#A966FF"/><stop offset="1" stop-color="#892FFF"/></linearGradient><linearGradient id="paint1_linear_362552_1692" x1="9.5" y1="10.531" x2="8.922" y2="7.875" gradientUnits="userSpaceOnUse"><stop stop-color="#A966FF"/><stop offset="1" stop-color="#892FFF"/></linearGradient></defs></svg>