<svg width="20" height="20" fill="none" xmlns="http://www.w3.org/2000/svg"><path d="M15.25 14.994A7.985 7.985 0 019.008 18h-5.01A1 1 0 013 17v-1a6 6 0 016-6v-.25h6.25v5.244z" fill="url(#paint0_radial_218573_1549)"/><path d="M15.25 14.994A7.985 7.985 0 019.008 18h-5.01A1 1 0 013 17v-1a6 6 0 016-6v-.25h6.25v5.244z" fill="url(#paint1_radial_218573_1549)" fill-opacity=".5"/><path d="M9 2H4a1 1 0 00-1 1v1a6 6 0 006 6h2.25a4 4 0 013.81 5.223A8 8 0 009 2z" fill="url(#paint2_radial_218573_1549)"/><path d="M9 2H4a1 1 0 00-1 1v1a6 6 0 006 6h2.25a4 4 0 013.81 5.223A8 8 0 009 2z" fill="url(#paint3_radial_218573_1549)" fill-opacity=".5"/><defs><radialGradient id="paint0_radial_218573_1549" cx="0" cy="0" r="1" gradientUnits="userSpaceOnUse" gradientTransform="matrix(10.12487 -8.2499 10.11492 12.41375 3 18.583)"><stop offset=".045" stop-color="#AD7DFF"/><stop offset=".328" stop-color="#6864F6"/><stop offset=".571" stop-color="#5750E2"/><stop offset=".809" stop-color="#3E36B1"/><stop offset="1" stop-color="#261D82"/></radialGradient><radialGradient id="paint1_radial_218573_1549" cx="0" cy="0" r="1" gradientUnits="userSpaceOnUse" gradientTransform="rotate(-160.304 9.729 7.432) scale(15.0593)"><stop offset=".706" stop-color="#AC80FF" stop-opacity="0"/><stop offset=".921" stop-color="#BD96FF"/></radialGradient><radialGradient id="paint2_radial_218573_1549" cx="0" cy="0" r="1" gradientUnits="userSpaceOnUse" gradientTransform="matrix(13.99976 11.01763 -9.10449 11.56878 3 2.482)"><stop stop-color="#FFC470"/><stop offset=".251" stop-color="#FF835C"/><stop offset=".584" stop-color="#F24A9D"/><stop offset=".871" stop-color="#B339F0"/><stop offset="1" stop-color="#C354FF"/></radialGradient><radialGradient id="paint3_radial_218573_1549" cx="0" cy="0" r="1" gradientUnits="userSpaceOnUse" gradientTransform="matrix(-11.41642 -7.95828 7.55741 -10.84136 8.743 13.458)"><stop offset=".709" stop-color="#FFB357" stop-opacity="0"/><stop offset=".942" stop-color="#FFB357"/></radialGradient></defs></svg>