<svg xmlns="http://www.w3.org/2000/svg" viewBox="0 0 32 32"><path fill="#FFF" stroke="#979593" stroke-miterlimit="10" d="M23.086 2.5H9.5a1 1 0 00-1 1v25a1 1 0 001 1h19a1 1 0 001-1V8.914a1 1 0 00-.293-.707l-5.414-5.414a1 1 0 00-.707-.293z"/><path fill="none" stroke="#979593" stroke-miterlimit="10" d="M23.5 2.5v5a1 1 0 001 1h5"/><path d="M26.5 24h-15a.5.5 0 100 1h15a.5.5 0 100-1zm0 2h-15a.5.5 0 100 1h15a.5.5 0 100-1zm-15-3h15a.5.5 0 100-1h-15a.5.5 0 100 1z" fill="#C8C6C4"/><path fill="#99CDC7" d="M18.955 13l-6 8h12z"/><path fill="#99CDC7" d="M22.955 16l-4 5h8z"/><circle fill="#99CDC7" cx="26" cy="12" r="1"/><path fill="#008272" d="M3.5 25h11a1.5 1.5 0 001.5-1.5v-11a1.5 1.5 0 00-1.5-1.5h-11A1.5 1.5 0 002 12.5v11A1.5 1.5 0 003.5 25z"/><path fill="#FFF" d="M6.96 17.855a2.2 2.2 0 01-.712-.696A1.776 1.776 0 016 16.207c0-.489.154-.9.462-1.232.307-.333.716-.58 1.225-.74.51-.16 1.07-.24 1.677-.24.93 0 1.667.096 2.208.287v1.44a3.625 3.625 0 00-.999-.378 5.233 5.233 0 00-1.168-.13c-.483 0-.883.079-1.2.235-.317.156-.476.379-.476.667 0 .179.067.337.201.47.135.136.315.256.544.36.227.104.566.242 1.018.415.079.025.127.043.147.054.533.202.961.397 1.285.585.322.189.576.425.758.707.183.282.275.637.275 1.064 0 .525-.144.953-.432 1.285-.289.33-.674.569-1.157.717s-1.031.22-1.646.22a9.395 9.395 0 01-1.493-.113 5.432 5.432 0 01-1.211-.323v-1.521c.33.227.74.407 1.225.54a5.2 5.2 0 001.35.2c.54 0 .949-.081 1.224-.241.274-.16.411-.385.411-.677a.697.697 0 00-.23-.518 2.362 2.362 0 00-.637-.41 22.43 22.43 0 00-1.2-.496 7.03 7.03 0 01-1.2-.58z"/></svg>