<svg id="Layer_1" data-name="Layer 1" xmlns="http://www.w3.org/2000/svg" viewBox="0 0 32 32"><defs><style>.cls-6{opacity:.2}</style></defs><rect x="16" y="8" width="15" height="15" rx="1.33" fill="#2b7cd3"/><path d="M22.61 8.44l-6.17 6.17a1.35 1.35 0 01-.94.39 1.33 1.33 0 01-.94-.39L8.39 8.44A1.32 1.32 0 018.1 7a1.25 1.25 0 01.29-.44L14.56.39a1.33 1.33 0 011.88 0l6.17 6.17a1.33 1.33 0 010 1.88z" fill="#41a5ee"/><path d="M23 22.5A7.49 7.49 0 019.52 27a5.85 5.85 0 01-.64-1 5.24 5.24 0 01-.44-1A7.15 7.15 0 018 22.5a7.5 7.5 0 017.5-7.5 4.19 4.19 0 01.5 0 5.58 5.58 0 011 .12 5.73 5.73 0 011 .29 7.49 7.49 0 015 7.09z" fill="#103f91"/><path fill="none" d="M0 0h32v32H0z"/><path d="M18 8.33v16.34A1.32 1.32 0 0117 26a1 1 0 01-.29 0H8.88a5.24 5.24 0 01-.44-1A7.15 7.15 0 018 22.5v-15a1.24 1.24 0 01.1-.5h8.57A1.34 1.34 0 0118 8.33z" opacity=".1"/><path class="cls-6" d="M17 9.33v16.34a1 1 0 010 .33 1.32 1.32 0 01-1.29 1H9.52a5.85 5.85 0 01-.64-1 5.24 5.24 0 01-.44-1A7.15 7.15 0 018 22.5V8h7.67A1.34 1.34 0 0117 9.33z"/><path class="cls-6" d="M17 9.33v14.34A1.34 1.34 0 0115.67 25H8.44A7.15 7.15 0 018 22.5V8h7.67A1.34 1.34 0 0117 9.33z"/><path class="cls-6" d="M16 9.33v14.34A1.34 1.34 0 0114.67 25H8.44A7.15 7.15 0 018 22.5V8h6.67A1.34 1.34 0 0116 9.33z"/><rect id="Back_Plate" data-name="Back Plate" y="8" width="16" height="16" rx="1.33" fill="#185abd"/><path d="M7.49 17.62c.29.83.46 1.35.51 1.57.05-.22.23-.78.54-1.69l2.27-6.5h2.06L9.08 21H6.87L3.13 11h2.12z" fill="#fff"/></svg>