<svg viewBox="0 0 96 96" fill="none" xmlns="http://www.w3.org/2000/svg"><mask id="a" maskUnits="userSpaceOnUse" x="6" y="6" width="84" height="84"><path d="M6 10c0-2.2 1.8-4 4-4h52.1c1.4 0 2.7.7 3.4 1.9l23.7 38c.8 1.3.8 2.9 0 4.2l-23.6 38c-.7 1.2-2 1.9-3.4 1.9H10c-2.2 0-4-1.8-4-4V10z" fill="#fff"/></mask><g mask="url(#a)"><path d="M27.1 10c0-2.2 1.8-4 4-4h31c1.4 0 2.7.7 3.4 1.9l23.7 38c.8 1.3.8 2.9 0 4.2l-23.6 38c-.7 1.2-2 1.9-3.4 1.9h-31c-2.2 0-4-1.8-4-4V10h-.1z" fill="url(#paint0_linear)"/><g filter="url(#filter0_d)"><path d="M6 10c0-2.2 1.8-4 4-4h33.2l24.9 39.9c.8 1.3.8 2.9 0 4.2L43.4 90H10c-2.2 0-4-1.8-4-4V10z" fill="url(#paint1_linear)"/></g><g filter="url(#filter1_d)"><path d="M6 10c0-2.2 1.8-4 4-4h12.1L47 45.9c.8 1.3.8 2.9 0 4.2L22.2 90H10c-2.2 0-4-1.8-4-4V10z" fill="url(#paint2_linear)"/></g></g><defs><linearGradient id="paint0_linear" x1="91.398" y1="89.087" x2="15.167" y2="19.036" gradientUnits="userSpaceOnUse"><stop stop-color="#922717"/><stop offset="1" stop-color="#D83B01"/></linearGradient><linearGradient id="paint1_linear" x1="-6.853" y1="22.627" x2="73.49" y2="84.731" gradientUnits="userSpaceOnUse"><stop stop-color="#F69B63"/><stop offset="1" stop-color="#D83B01"/></linearGradient><linearGradient id="paint2_linear" x1="56.466" y1="75.069" x2="-10.434" y2="30.881" gradientUnits="userSpaceOnUse"><stop stop-color="#F69B63"/><stop offset="1" stop-color="#FFB685"/></linearGradient><filter id="filter0_d" x="-4" y="0" width="82.7" height="104" filterUnits="userSpaceOnUse" color-interpolation-filters="sRGB"><feFlood flood-opacity="0" result="BackgroundImageFix"/><feColorMatrix in="SourceAlpha" values="0 0 0 0 0 0 0 0 0 0 0 0 0 0 0 0 0 0 127 0"/><feOffset dy="4"/><feGaussianBlur stdDeviation="5"/><feColorMatrix values="0 0 0 0 0 0 0 0 0 0 0 0 0 0 0 0 0 0 0.32 0"/><feBlend in2="BackgroundImageFix" result="effect1_dropShadow"/><feBlend in="SourceGraphic" in2="effect1_dropShadow" result="shape"/></filter><filter id="filter1_d" x="-4" y="0" width="61.6" height="104" filterUnits="userSpaceOnUse" color-interpolation-filters="sRGB"><feFlood flood-opacity="0" result="BackgroundImageFix"/><feColorMatrix in="SourceAlpha" values="0 0 0 0 0 0 0 0 0 0 0 0 0 0 0 0 0 0 127 0"/><feOffset dy="4"/><feGaussianBlur stdDeviation="5"/><feColorMatrix values="0 0 0 0 0 0 0 0 0 0 0 0 0 0 0 0 0 0 0.24 0"/><feBlend in2="BackgroundImageFix" result="effect1_dropShadow"/><feBlend in="SourceGraphic" in2="effect1_dropShadow" result="shape"/></filter></defs></svg>