<svg width="20" height="20" fill="none" xmlns="http://www.w3.org/2000/svg"><path d="M16 7h-2.5c-.827 0-1.5-.673-1.5-1.5V2H4v16h12V7z" fill="#fff"/><path d="M16 6v-.293l-3-3V5.5c0 .275.225.5.5.5H16z" fill="#fff"/><path opacity=".67" fill-rule="evenodd" clip-rule="evenodd" d="M16.707 5L13 1.293A1 1 0 0012.293 1H4a1 1 0 00-1 1v16a1 1 0 001 1h12a1 1 0 001-1V5.707A1 1 0 0016.707 5zM16 5.707V6h-2.5a.501.501 0 01-.5-.5V2.707l3 3zM4 2.2v15.6c0 .11.09.2.2.2h11.6a.2.2 0 00.2-.2V7h-2.5A1.5 1.5 0 0112 5.5V2H4.2a.2.2 0 00-.2.2z" fill="#605E5C"/><path d="M14.5 10h-9a.5.5 0 010-1h9a.5.5 0 010 1z" fill="#C8C6C4"/><path fill-rule="evenodd" clip-rule="evenodd" d="M6 16v-4a1 1 0 011-1h6a1 1 0 011 1v4a1 1 0 01-1 1H7a1 1 0 01-1-1zm1.2 0h5.594a.195.195 0 00.2-.196c-.006-.678.002-2.932.006-3.61 0-.11-.09-.194-.2-.194H7.2a.2.2 0 00-.2.2v3.6c0 .11.09.2.2.2zm-2.45 0H3a1 1 0 01-1-1v-2a1 1 0 011-1h1.75a.25.25 0 01.25.25v3.5a.25.25 0 01-.25.25zm10.5 0H17a1 1 0 001-1v-2a1 1 0 00-1-1h-1.75a.25.25 0 00-.25.25v3.5c0 .138.112.25.25.25z" fill="#D65532"/></svg>