<svg width="20" height="20" fill="none" xmlns="http://www.w3.org/2000/svg"><path d="M10 2a8 8 0 11-3.613 15.14l-.121-.065-3.645.91a.5.5 0 01-.62-.441v-.082l.014-.083.91-3.644-.063-.12a7.95 7.95 0 01-.83-2.887l-.025-.382L2 10a8 8 0 018-8z" fill="url(#paint0_linear_378174_10003)"/><path d="M10.5 11h-3l-.09.008a.5.5 0 000 .984L7.5 12h3l.09-.008a.5.5 0 000-.984L10.5 11zm2-3h-5l-.09.008a.5.5 0 000 .984L7.5 9h5l.09-.008a.5.5 0 000-.984L12.5 8z" fill="url(#paint1_linear_378174_10003)"/><defs><linearGradient id="paint0_linear_378174_10003" x1="2.571" y1="5" x2="16.54" y2="28.815" gradientUnits="userSpaceOnUse"><stop stop-color="#0FAFFF"/><stop offset="1" stop-color="#CC23D1"/></linearGradient><linearGradient id="paint1_linear_378174_10003" x1="7.525" y1="8.07" x2="7.974" y2="12.414" gradientUnits="userSpaceOnUse"><stop stop-color="#FDFDFD"/><stop offset="1" stop-color="#CCEAFF"/></linearGradient></defs></svg>