<svg viewBox="0 0 32 32" fill="none" xmlns="http://www.w3.org/2000/svg"><path fill-rule="evenodd" clip-rule="evenodd" d="M28 5v17.586L22.586 28H5a1 1 0 01-1-1V9.414L9.414 4H27a1 1 0 011 1z" fill="#fff"/><path opacity=".64" d="M28.5 5v17.793L22.793 28.5H5A1.5 1.5 0 013.5 27V9.207L9.207 3.5H27A1.5 1.5 0 0128.5 5z" stroke="#605E5C"/><rect x="7" y="9" width="4" height="2" rx="1" fill="#ECCF35"/><rect x="7" y="13" width="4" height="2" rx="1" fill="#E25A01"/><rect x="7" y="17" width="4" height="2" rx="1" fill="#BF3207"/><rect x="7" y="21" width="4" height="2" rx="1" fill="#773C6E"/><rect x="13" y="9" width="12" height="2" rx="1" fill="#FED912"/><rect x="13" y="13" width="12" height="2" rx="1" fill="#F18C0A"/><rect x="13" y="17" width="12" height="2" rx="1" fill="#D83B01"/><rect x="13" y="21" width="12" height="2" rx="1" fill="#974B8B"/></svg>