<svg viewBox="0 0 32 32" fill="none" xmlns="http://www.w3.org/2000/svg"><path d="M16 2C8.268 2 2 8.268 2 16v14h14c7.732 0 14-6.268 14-14S23.732 2 16 2zm0 9a5 5 0 010 10h-5v-5a5 5 0 015-5z" fill="url(#a)"/><path d="M16 30c7.732 0 14-6.268 14-14h-9a5 5 0 01-5 5h-5a9 9 0 00-9 9h14z" fill="url(#b)"/><path d="M16 30c7.732 0 14-6.268 14-14h-9a5 5 0 01-5 5h-5a9 9 0 00-9 9h14z" fill="url(#c)" fill-opacity=".56"/><path d="M2 16C2 8.268 8.268 2 16 2v9a5 5 0 00-5 5v5a9 9 0 01-9 9V16z" fill="url(#d)"/><defs><linearGradient id="a" x1="30" y1="30" x2="2" y2="2" gradientUnits="userSpaceOnUse"><stop stop-color="#50E6FF"/><stop offset="1" stop-color="#8661C5"/></linearGradient><linearGradient id="b" x1="6.2" y1="25.45" x2="8.06" y2="15.619" gradientUnits="userSpaceOnUse"><stop stop-color="#50E6FF"/><stop offset="1" stop-color="#50E6FF" stop-opacity="0"/></linearGradient><linearGradient id="d" x1="6.2" y1="17.05" x2="13.9" y2="7.95" gradientUnits="userSpaceOnUse"><stop stop-color="#8661C5"/><stop offset="1" stop-color="#8661C5" stop-opacity="0"/></linearGradient><radialGradient id="c" cx="0" cy="0" r="1" gradientUnits="userSpaceOnUse" gradientTransform="matrix(-4 -3 6.4613 -8.61503 7.5 25)"><stop/><stop offset=".7" stop-opacity="0"/></radialGradient></defs></svg>