<svg width="20" height="20" fill="none" xmlns="http://www.w3.org/2000/svg"><rect x="5" y="2" width="13" height="16" rx="2" fill="#036C70"/><path d="M16 2H7a2 2 0 00-2 2v6h13V4a2 2 0 00-2-2z" fill="#37C6D0"/><path d="M14.5 8.5a2.5 2.5 0 100-5 2.5 2.5 0 000 5z" fill="#036C70"/><circle cx="14.5" cy="6" r="2" stroke="#1A9BA1" stroke-linecap="round"/><rect x="12.5" y="12" width="4" height="4" rx=".5" fill="#1A9BA1"/><path fill-rule="evenodd" clip-rule="evenodd" d="M5 16V6h6a1 1 0 011 1v7a2 2 0 01-2 2H5z" fill="#000" fill-opacity=".5"/><rect x="1" y="5" width="10" height="10" rx="1" fill="#038387"/><path d="M7.256 7.866h-2.23v1.778h2.058v.862H5.025V13H4V7h3.256v.866z" fill="#fff"/></svg>