<svg width="20" height="20" fill="none" xmlns="http://www.w3.org/2000/svg"><path d="M10 2a8 8 0 00-8 8v8h8a8 8 0 100-16zm0 5.2a2.8 2.8 0 110 5.6H7.2V10A2.8 2.8 0 0110 7.2z" fill="url(#paint0_linear_148635_976)"/><path d="M18 10a8 8 0 01-8 8H2a5.2 5.2 0 015.2-5.2H10a2.8 2.8 0 002.8-2.8H18z" fill="url(#paint1_linear_148635_976)"/><path d="M18 10a8 8 0 01-8 8H2a5.2 5.2 0 015.2-5.2H10a2.8 2.8 0 002.8-2.8H18z" fill="url(#paint2_radial_148635_976)" fill-opacity=".56"/><path d="M18 10a8 8 0 01-8 8H2a5.2 5.2 0 015.2-5.2H10a2.8 2.8 0 002.8-2.8H18z" fill="url(#paint3_radial_148635_976)" fill-opacity=".1"/><path d="M10 2a8 8 0 00-8 8v8h.002A5.2 5.2 0 007.2 12.817l.017-.017H7.2V10a2.8 2.8 0 014.795-1.964l3.683-3.672A7.975 7.975 0 0010 2z" fill="url(#paint4_linear_148635_976)"/><path d="M10 2a8 8 0 00-8 8v8h.002A5.2 5.2 0 007.2 12.817l.017-.017H7.2V10a2.8 2.8 0 014.795-1.964l3.683-3.672A7.975 7.975 0 0010 2z" fill="url(#paint5_radial_148635_976)"/><defs><radialGradient id="paint2_radial_148635_976" cx="0" cy="0" r="1" gradientUnits="userSpaceOnUse" gradientTransform="matrix(3.2 2.2 -3.86655 5.62407 4.8 14.6)"><stop/><stop offset=".7" stop-opacity="0"/></radialGradient><radialGradient id="paint3_radial_148635_976" cx="0" cy="0" r="1" gradientUnits="userSpaceOnUse" gradientTransform="matrix(5.92 3.68 -6.46767 10.4045 3.84 14)"><stop offset=".328"/><stop offset=".604" stop-opacity="0"/></radialGradient><radialGradient id="paint5_radial_148635_976" cx="0" cy="0" r="1" gradientUnits="userSpaceOnUse" gradientTransform="matrix(10.72004 -1.84 4.83761 28.18435 .64 6.96)"><stop stop-color="#6D05E8"/><stop offset="1" stop-color="#6D05E8" stop-opacity="0"/></radialGradient><linearGradient id="paint0_linear_148635_976" x1="11.76" y1="7.68" x2="9.12" y2="18.48" gradientUnits="userSpaceOnUse"><stop stop-color="#9237E3"/><stop offset="1" stop-color="#48E6F3"/></linearGradient><linearGradient id="paint1_linear_148635_976" x1="7.2" y1="16.8" x2="14.24" y2="15.2" gradientUnits="userSpaceOnUse"><stop stop-color="#51E6FF"/><stop offset="1" stop-color="#71D4FF" stop-opacity="0"/></linearGradient><linearGradient id="paint4_linear_148635_976" x1="5.28" y1="10.56" x2="9.36" y2="4.8" gradientUnits="userSpaceOnUse"><stop stop-color="#6D05E8"/><stop offset="1" stop-color="#AB5ADD" stop-opacity="0"/></linearGradient></defs></svg>