<svg viewBox="0 0 32 32" fill="none" xmlns="http://www.w3.org/2000/svg"><path fill="#fff" d="M9 3h20v26H9z"/><path fill-rule="evenodd" clip-rule="evenodd" d="M28 3H10a1 1 0 00-1 1v24a1 1 0 001 1h18a1 1 0 001-1V4a1 1 0 00-1-1zM10 2a2 2 0 00-2 2v24a2 2 0 002 2h18a2 2 0 002-2V4a2 2 0 00-2-2H10z" fill="#605E5C" fill-opacity=".64"/><g clip-path="url(#a)"><path d="M15.26 8.639L2.87 11.476a1.115 1.115 0 00-.842 1.337l.332 1.425c.14.6.743.974 1.348.836l12.389-2.837c.605-.139.982-.738.842-1.338l-.331-1.425c-.14-.6-.744-.974-1.349-.835z" fill="url(#b)"/><path d="M2 20.783h15.75v2.13a1.43 1.43 0 01-1.432 1.42H3.432A1.43 1.43 0 012 22.913v-2.13z" fill="#5A4CDB"/><path d="M17.75 17.232H7.011v3.55h10.74v-3.55z" fill="#885EDE"/><path d="M12.739 13.681H2v3.55h10.739v-3.55z" fill="#C689E6"/><path d="M7.011 17.232H2v3.55h5.011v-3.55zm5.728-3.551h3.58c.787 0 1.43.64 1.43 1.42v2.13h-5.01v-3.55z" fill="#AA72E1"/><path d="M2 19.668v1.115h1.124A1.117 1.117 0 012 19.668z" fill="#5A4CDB"/><path d="M2 16.117v1.115h1.124A1.117 1.117 0 012 16.117z" fill="#AA72E1"/><path d="M2 12.566v1.115h1.124A1.117 1.117 0 012 12.566z" fill="#C689E6"/><path d="M16.318 13.681H3.124A1.121 1.121 0 012 12.566v10.347c0 .781.644 1.42 1.432 1.42h12.886a1.43 1.43 0 001.432-1.42v-7.812a1.43 1.43 0 00-1.432-1.42z" fill="url(#c)" style="mix-blend-mode:soft-light"/></g><defs><linearGradient id="b" x1="1.776" y1="11.726" x2="11.201" y2="19.372" gradientUnits="userSpaceOnUse"><stop stop-color="#5A4CDB"/><stop offset="1" stop-color="#AD58DB"/></linearGradient><linearGradient id="c" x1="2" y1="12.566" x2="19.58" y2="20.012" gradientUnits="userSpaceOnUse"><stop stop-color="#FCCEF5"/><stop offset="1" stop-color="#5A4CDB"/></linearGradient><clipPath id="a"><path fill="#fff" d="M2 8h15.75v16.333H2z"/></clipPath></defs></svg>