<svg width="20" height="20" fill="none" xmlns="http://www.w3.org/2000/svg"><g clip-path="url(#clip0_7985_270093)"><path d="M18 3c0-.55-.45-1-1-1H6c-.55 0-1 .45-1 1v11l5.5 1.5L18 14V3z" fill="#37C6D0"/><path d="M15 6.25a1.25 1.25 0 100-2.5 1.25 1.25 0 000 2.5z" fill="#86F2F2"/><path d="M18 11v5H7l7.29-7.29c.39-.39 1.03-.39 1.42 0L18 11z" fill="#038387"/><path d="M5 14v3c0 .55.45 1 1 1h11c.55 0 1-.45 1-1v-3H5z" fill="#036C70"/><path opacity=".5" d="M13 7v7c0 1.1-.9 2-2 2H5V6h7c.55 0 1 .45 1 1z" fill="#000"/><path d="M11 5H3a1 1 0 00-1 1v8a1 1 0 001 1h8a1 1 0 001-1V6a1 1 0 00-1-1z" fill="#038387"/><path d="M5.55 9.89c-.22-.16-.39-.34-.51-.56-.12-.22-.18-.47-.18-.76 0-.39.11-.72.33-.99.22-.27.51-.46.88-.59.37-.13.77-.19 1.2-.19.67 0 1.2.08 1.59.23v1.16c-.21-.13-.45-.23-.72-.3-.27-.07-.55-.1-.84-.1-.35 0-.63.06-.86.19-.23.13-.34.3-.34.53 0 .14.05.27.14.38.1.11.23.2.39.29.16.08.41.19.73.33.06.02.09.03.1.04.38.16.69.32.92.47.23.15.41.34.55.57.13.23.2.51.2.86 0 .42-.1.76-.31 1.03s-.48.46-.83.58c-.35.12-.74.18-1.18.18-.38 0-.73-.03-1.07-.09-.34-.06-.63-.15-.87-.26v-1.22c.24.18.53.33.88.43.35.11.67.16.97.16.39 0 .68-.06.88-.19.2-.13.3-.31.3-.54 0-.16-.06-.3-.17-.42-.11-.12-.26-.23-.46-.33-.19-.1-.48-.23-.86-.4-.35-.15-.64-.31-.86-.47v-.02z" fill="#fff"/></g><defs><clipPath id="clip0_7985_270093"><path fill="#fff" transform="translate(2 2)" d="M0 0h16v16H0z"/></clipPath></defs></svg>