<svg width="20" height="20" fill="none" xmlns="http://www.w3.org/2000/svg"><path d="M13 6h3.542C17.35 6 18 6.78 18 7.75V10h-5V6z" fill="url(#paint0_linear_8183_100342)"/><path d="M2 14h16v1.75A2.25 2.25 0 0115.75 18H4.25A2.25 2.25 0 012 15.75V14z" fill="url(#paint1_linear_8183_100342)"/><path d="M8 10H2v4h6v-4z" fill="url(#paint2_linear_8183_100342)"/><path d="M15.59 1.023L3.23 3.276A1.5 1.5 0 002 4.75v.49a1.5 1.5 0 001.737 1.482l12.422-1.984a1 1 0 00.834-1.12l-.233-1.744a1 1 0 00-1.17-.852z" fill="url(#paint3_linear_8183_100342)"/><path d="M18 10H7v4h11v-4z" fill="url(#paint4_linear_8183_100342)"/><path d="M13 6H2v4h11V6z" fill="url(#paint5_linear_8183_100342)"/><path d="M2 12.71V14h1.29C2.58 14 2 13.42 2 12.71z" fill="#8362F6"/><path d="M2 8.71V10h1.29C2.58 10 2 9.42 2 8.71z" fill="#D890F9"/><path d="M2 4.71V6h1.29C2.58 6 2 5.42 2 4.71z" fill="#EFADFC"/><defs><linearGradient id="paint0_linear_8183_100342" x1="13" y1="8.4" x2="18" y2="8.4" gradientUnits="userSpaceOnUse"><stop stop-color="#B874F6"/><stop offset="1" stop-color="#A866F5"/></linearGradient><linearGradient id="paint1_linear_8183_100342" x1="2" y1="15.333" x2="18" y2="15.333" gradientUnits="userSpaceOnUse"><stop stop-color="#8462F6"/><stop offset="1" stop-color="#4D37F1"/></linearGradient><linearGradient id="paint2_linear_8183_100342" x1="2" y1="12" x2="6.8" y2="12" gradientUnits="userSpaceOnUse"><stop stop-color="#D991F9"/><stop offset="1" stop-color="#C680F7"/></linearGradient><linearGradient id="paint3_linear_8183_100342" x1="2" y1=".835" x2="14.424" y2="10.476" gradientUnits="userSpaceOnUse"><stop stop-color="#5A4CDB"/><stop offset="1" stop-color="#AD58DB"/></linearGradient><linearGradient id="paint4_linear_8183_100342" x1="7" y1="12" x2="18" y2="12" gradientUnits="userSpaceOnUse"><stop stop-color="#A66BF6"/><stop offset="1" stop-color="#814DF3"/></linearGradient><linearGradient id="paint5_linear_8183_100342" x1="2" y1="7.6" x2="13.011" y2="8.191" gradientUnits="userSpaceOnUse"><stop stop-color="#EFADFB"/><stop offset="1" stop-color="#D28CF8"/></linearGradient></defs></svg>