<svg id="Icons" xmlns="http://www.w3.org/2000/svg" viewBox="0 0 32 32"><defs><style>.cls-3{fill:none}.cls-4{fill:#949494}</style></defs><rect x="4" y="4" width="24" height="24" rx=".5" fill="#fff"/><path d="M27.5 29h-23A1.5 1.5 0 013 27.5v-23A1.5 1.5 0 014.5 3h23A1.5 1.5 0 0129 4.5v23a1.5 1.5 0 01-1.5 1.5zM4.5 4a.5.5 0 00-.5.5v23a.5.5 0 00.5.5h23a.5.5 0 00.5-.5v-23a.5.5 0 00-.5-.5z" fill="#605e5c" opacity=".64"/><path class="cls-3" d="M0 0h32v32H0z"/><path class="cls-4" d="M21 11.5V14h1v-2.5a1.5 1.5 0 00-1.5-1.5H14v1h6.5a.51.51 0 01.5.5zM14 21h-2.5a.51.51 0 01-.5-.5V14h-1v6.5a1.5 1.5 0 001.5 1.5H14zM12 9v3H9V9h3m0-1H9a1 1 0 00-1 1v3a1 1 0 001 1h3a1 1 0 001-1V9a1 1 0 00-1-1z"/><path class="cls-3" d="M8 8h16v16H8z"/><rect x="15" y="15" width="9" height="9" rx="1.5" fill="#1e8bcd"/></svg>