<svg width="20" height="20" fill="none" xmlns="http://www.w3.org/2000/svg"><path d="M15 7h.5A1.5 1.5 0 0117 8.5V16a2 2 0 01-2 2H5a2 2 0 01-2-2v-1l9-2 3-6z" fill="url(#paint0_linear_8162_266944)"/><path d="M15 5.5v-.001-.009A1.5 1.5 0 0013.508 4H12v6.5c0 .274-.228.53-.542.56-.985.09-2.562.325-4.145.932-1.164.446-2.356 1.104-3.313 2.076 0 0-1 .932-1 1.932 0 .65.31 1.229.792 1.594.234-.17.539-.395.934-.632 1.126-.654 2.621-1.1 4.14-1.398 1.818-.357 3.597-.488 4.66-.536A1.54 1.54 0 0015 13.5v-8z" fill="url(#paint1_radial_8162_266944)"/><path d="M13 10.5c0 .831-.664 1.482-1.45 1.555-.935.087-2.413.308-3.879.87-1.363.523-3.474 1.941-4.53 3.812A1.995 1.995 0 013 16v-5.5c0-3.081 1.439-5.255 3.176-6.743C7.9 2.28 9.929 1.467 11.178 1.07 12.134.766 13 1.514 13 2.446V10.5z" fill="url(#paint2_radial_8162_266944)"/><defs><radialGradient id="paint1_radial_8162_266944" cx="0" cy="0" r="1" gradientUnits="userSpaceOnUse" gradientTransform="matrix(-13.3947 -12.73111 22.36626 -23.53208 16.395 16.731)"><stop offset=".225" stop-color="#E331D8"/><stop offset=".688" stop-color="#AC3445"/></radialGradient><radialGradient id="paint2_radial_8162_266944" cx="0" cy="0" r="1" gradientUnits="userSpaceOnUse" gradientTransform="rotate(62.534 4.081 2.468) scale(17.9532 16.4309)"><stop stop-color="#8C48FF"/><stop offset=".384" stop-color="#F2598A"/><stop offset=".853" stop-color="#FFB152"/></radialGradient><linearGradient id="paint0_linear_8162_266944" x1="13.318" y1="12.5" x2="32.139" y2="55.024" gradientUnits="userSpaceOnUse"><stop offset=".035" stop-color="#4022A0"/><stop offset=".169" stop-color="#C570FB"/></linearGradient></defs></svg>