<svg width="20" height="20" fill="none" xmlns="http://www.w3.org/2000/svg"><path d="M11 14h6a1 1 0 001-1V7a1 1 0 00-1-1h-6a1 1 0 00-1 1v6a1 1 0 001 1z" fill="#2B7CD3"/><path d="M10.296 9.708L7.292 6.704a.996.996 0 010-1.409l3.004-3.004a.998.998 0 011.409 0l3.004 3.004a.996.996 0 010 1.41l-3.005 3.003a.996.996 0 01-1.409 0z" fill="#41A5EE"/><path d="M15 14a4 4 0 10-8 0 4 4 0 008 0z" fill="#103F91"/><path d="M12 6.003l-5-.002c0 .254.097.51.292.703L10 9.412v.714A4.002 4.002 0 007.535 16H11a2 2 0 002-2V7.002a1 1 0 00-1-1z" fill="#000"/><path d="M11 15H3c-.55 0-1-.45-1-1V6c0-.55.45-1 1-1h8c.55 0 1 .45 1 1v8c0 .55-.45 1-1 1z" fill="#185ABD"/><path d="M6.697 10.97c.17.5.27.814.3.946h.022a15.6 15.6 0 01.327-1.013L8.689 7h1.234l-2.276 6H6.325L4.078 7H5.35l1.347 3.97z" fill="#fff"/></svg>