<svg width="20" height="20" fill="none" xmlns="http://www.w3.org/2000/svg"><path d="M10 2a8 8 0 100 16 8 8 0 000-16z" fill="#D35230"/><path d="M10 2a8 8 0 00-8 8h8V2z" fill="#ED6C47"/><path d="M18 10a8 8 0 00-8-8v8h8z" fill="#FF8F6B"/><path fill-rule="evenodd" clip-rule="evenodd" d="M4.708 16H10a2 2 0 002-2V7a1 1 0 00-1-1H3.07A7.963 7.963 0 002 10a7.98 7.98 0 002.708 6z" fill="#000" fill-opacity=".5"/><rect x="1" y="5" width="10" height="10" rx="1" fill="#C43E1C"/><path d="M5.025 10.916V13H4V7h1.883c.697 0 1.229.161 1.594.485.366.32.549.79.549 1.406 0 .6-.207 1.088-.62 1.464-.413.374-.966.561-1.661.561h-.72zm0-3.08v2.252h.636c.422 0 .74-.1.959-.297.22-.198.33-.484.33-.858 0-.366-.104-.64-.314-.82-.206-.185-.517-.277-.933-.277h-.678z" fill="#fff"/></svg>