<svg width="20" height="20" fill="none" xmlns="http://www.w3.org/2000/svg"><rect x="5" y="2" width="13" height="16" rx="2" fill="#41A5EE"/><path d="M5 6h13v4H5V6z" fill="#2B7CD3"/><path d="M5 10h13v4H5v-4z" fill="#185ABD"/><path d="M5 14h13v2a2 2 0 01-2 2H7a2 2 0 01-2-2v-2z" fill="#103F91"/><path d="M5 6h7a1 1 0 011 1v7a2 2 0 01-2 2H5V6z" fill="#000" fill-opacity=".5"/><rect x="2" y="5" width="10" height="10" rx="1" fill="#185ABD"/><path d="M11.063 7l-1.64 6H8.26L7.147 8.883a3.281 3.281 0 01-.097-.645h-.016a3.83 3.83 0 01-.046.34 3.016 3.016 0 01-.063.3L5.79 13H4.607l-1.67-6h1.126L5.12 11.3c.025.09.045.189.059.297.014.106.025.222.033.348h.021a3.517 3.517 0 01.126-.653L6.57 7h1.058l1.13 4.335c.02.075.037.163.054.263s.03.214.042.34h.017c.005-.093.016-.19.033-.294.02-.103.042-.213.067-.33L10.001 7h1.062z" fill="#fff"/></svg>