<svg width="20" height="20" fill="none" xmlns="http://www.w3.org/2000/svg"><rect x="5" y="2" width="13" height="16" rx="2" fill="#CA64EA"/><path fill="#AE4BD5" d="M14 6h4v4h-4z"/><path fill="#9332BF" d="M14 10h4v4h-4z"/><path d="M14 14h4v2a2 2 0 01-2 2h-2v-4z" fill="#7719AA"/><path d="M5 6h6a1 1 0 011 1v7a2 2 0 01-2 2H5V6z" fill="#000" fill-opacity=".5"/><rect x="1" y="5" width="10" height="10" rx="1" fill="#7719AA"/><path d="M8.559 13H7.446L4.663 8.723a5.667 5.667 0 01-.146-.238 3.36 3.36 0 01-.1-.201h-.022c.011.086.02.205.025.356.006.147.009.329.009.544V13H3.44V7h1.184l2.695 4.18c.059.089.11.171.155.247.048.075.087.142.117.2h.017a2.571 2.571 0 01-.03-.33c-.005-.145-.008-.32-.008-.523V6.999h.988v6z" fill="#fff"/></svg>