<svg viewBox="0 0 20 20" fill="none" xmlns="http://www.w3.org/2000/svg"><path d="M3.5 17h13c.275 0 .5-.225.5-.5v-13c0-.275-.225-.5-.5-.5h-13c-.275 0-.5.225-.5.5v13c0 .275.225.5.5.5z" fill="#fff"/><path opacity=".67" fill-rule="evenodd" clip-rule="evenodd" d="M3.5 18h13c.827 0 1.5-.673 1.5-1.5v-13c0-.827-.673-1.5-1.5-1.5h-13C2.673 2 2 2.673 2 3.5v13c0 .827.673 1.5 1.5 1.5zM3 3.5a.5.5 0 01.5-.5h13a.5.5 0 01.5.5v13a.5.5 0 01-.5.5h-13a.5.5 0 01-.5-.5v-13z" fill="#605E5C"/><path d="M13.728 9.523a.555.555 0 010 .954l-5.921 3.45A.54.54 0 017 13.45v-6.9a.54.54 0 01.807-.477l5.921 3.45z" fill="url(#paint0_linear_1472_98965)"/><path d="M13.728 9.523a.555.555 0 010 .954l-5.921 3.45A.54.54 0 017 13.45v-6.9a.54.54 0 01.807-.477l5.921 3.45z" fill="url(#paint1_linear_1472_98965)"/><defs><linearGradient id="paint0_linear_1472_98965" x1="7.843" y1="7.367" x2="9.552" y2="10.646" gradientUnits="userSpaceOnUse"><stop stop-color="#A966FF"/><stop offset="1" stop-color="#892FFF"/></linearGradient><linearGradient id="paint1_linear_1472_98965" x1="10.5" y1="12.042" x2="9.763" y2="8.485" gradientUnits="userSpaceOnUse"><stop stop-color="#A966FF"/><stop offset="1" stop-color="#892FFF"/></linearGradient></defs></svg>