<svg xmlns="http://www.w3.org/2000/svg" viewBox="0 0 32 32"><path d="M8 19.5v8c0 1.933 5.373 3.5 12 3.5s12-1.567 12-3.5v-8z" fill="#881421"/><path d="M8 12.5v8c0 1.933 5.373 3.5 12 3.5s12-1.567 12-3.5v-8z" fill="#af2031"/><path d="M8 4.5v8c0 1.933 5.373 3.5 12 3.5s12-1.567 12-3.5v-8z" fill="#c94f60"/><ellipse cx="20" cy="4.5" rx="12" ry="3.5" fill="#e08095"/><path fill="none" d="M0 0h32v32H0z"/><path d="M16.667 7H8v19h8.667A1.337 1.337 0 0018 24.667V8.333A1.337 1.337 0 0016.667 7z" opacity=".1"/><path d="M15.667 8H8v19h7.667A1.337 1.337 0 0017 25.667V9.333A1.337 1.337 0 0015.667 8z" opacity=".2"/><path d="M15.667 8H8v17h7.667A1.337 1.337 0 0017 23.667V9.333A1.337 1.337 0 0015.667 8z" opacity=".2"/><path d="M14.667 8H8v17h6.667A1.337 1.337 0 0016 23.667V9.333A1.337 1.337 0 0014.667 8z" opacity=".2"/><rect y="8" width="16" height="16" rx="1.333" fill="#af2031"/><path d="M6.9 11h2.261L12.8 21h-2.14l-.8-2.385H6.114L5.326 21H3.2zm2.482 6.074l-1.169-3.619A4.647 4.647 0 018 12.639h-.045a4.686 4.686 0 01-.21.837l-1.178 3.6z" fill="#fff"/></svg>