<svg xmlns="http://www.w3.org/2000/svg" viewBox="0 0 32 32"><path fill="#FFF" d="M4 7.5a.5.5 0 01.5-.5h23a.5.5 0 01.5.5v17a.5.5 0 01-.5.5h-23a.5.5 0 01-.5-.5v-17z"/><path opacity=".64" fill="#605E5C" d="M27.5 26h-23c-.827 0-1.5-.673-1.5-1.5v-17C3 6.673 3.673 6 4.5 6h23c.827 0 1.5.673 1.5 1.5v17c0 .827-.673 1.5-1.5 1.5zM4.5 7c-.275 0-.5.225-.5.5v17c0 .275.225.5.5.5h23c.275 0 .5-.225.5-.5v-17c0-.275-.225-.5-.5-.5h-23z"/><path fill="#0C34FB" d="M14.91 20.08a.256.256 0 00-.343.005 2.36 2.36 0 01-2.232.51 2.083 2.083 0 01-.85-.602c-.208-.242-1.377-1.708-1.84-2.142a3.164 3.164 0 00-1.697-.821 2.874 2.874 0 00-1.802.327 2.538 2.538 0 00-1.13 1.281.253.253 0 00.258.34.27.27 0 00.157-.063 2.359 2.359 0 012.232-.51c.33.125.622.332.849.601.208.242 1.378 1.708 1.84 2.142a3.16 3.16 0 001.697.822c.62.09 1.254-.025 1.802-.328a2.537 2.537 0 001.13-1.28.243.243 0 00-.072-.282z"/><path fill-rule="evenodd" clip-rule="evenodd" fill="#0C34FB" d="M26.262 3.176a1.75 1.75 0 012.475 0l2.586 2.586a1.75 1.75 0 010 2.475l-8.46 8.46a2.75 2.75 0 01-1.074.664l-5.173 1.724a.95.95 0 01-1.201-1.202l1.724-5.173a2.75 2.75 0 01.664-1.074l8.46-8.46zM21.5 16l-3-3-1.5 4.5 4.5-1.5z"/></svg>