<svg xmlns="http://www.w3.org/2000/svg" viewBox="0 0 32 32"><rect x="22" y="4" width="10" height="24" rx="1.252" fill="#038387"/><path d="M8 22.5v6A1.406 1.406 0 009.286 30h17.428A1.406 1.406 0 0028 28.5v-6a1.405 1.405 0 00-1.286-1.5H9.286A1.405 1.405 0 008 22.5z" fill="#038387"/><path d="M26.714 2H9.286A1.28 1.28 0 008 3.272V16h20V3.272A1.28 1.28 0 0026.714 2z" fill="#37c6d0"/><path fill="#1a9ba1" d="M8 16h20v7H8z"/><path d="M16.667 7H8v19h8.667A1.337 1.337 0 0018 24.666V8.333A1.337 1.337 0 0016.667 7z" opacity=".1"/><path d="M15.667 8H8v19h7.667A1.337 1.337 0 0017 25.666V9.333A1.337 1.337 0 0015.667 8z" opacity=".2"/><path d="M15.667 8H8v17h7.667A1.337 1.337 0 0017 23.666V9.333A1.337 1.337 0 0015.667 8z" opacity=".2"/><path d="M14.667 8H8v17h6.667A1.337 1.337 0 0016 23.666V9.333A1.337 1.337 0 0014.667 8z" opacity=".2"/><path d="M14.667 24H1.334A1.338 1.338 0 010 22.666V9.333A1.337 1.337 0 011.334 8h13.333A1.337 1.337 0 0116 9.333v13.333A1.337 1.337 0 0114.667 24z" fill="#038387"/><path d="M8.035 11a4.163 4.163 0 012.752.8 2.873 2.873 0 01.955 2.329 2.724 2.724 0 01-.472 1.586A3.159 3.159 0 019.927 16.9a4.564 4.564 0 01-2.018.423H6v3.662H4.042V11zM6 15.678h1.686a2.189 2.189 0 001.489-.444 1.1 1.1 0 00.5-1.024q0-1.658-1.93-1.658H6z" fill="#f9f7f7"/><path fill="none" d="M0 0h32v32H0z"/><path opacity=".2" d="M28 4h1v24h-1z"/></svg>