<svg xmlns="http://www.w3.org/2000/svg" viewBox="0 0 32 32"><path d="M32 3.33V23l-11 2-13-2V3.33A1.336 1.336 0 019.33 2h21.34A1.336 1.336 0 0132 3.33z" fill="#37c6d0"/><path d="M32 15.84v3.99l-.83.84h-13l7.33-7.34.86-.86a1.618 1.618 0 012.28 0z" fill="#1a9ba1"/><path d="M32 19.83V23l-11.83 1.67L8 23v-.16l12.36-12.37a1.618 1.618 0 012.28 0l2.86 2.86z" fill="#038387"/><circle cx="27.5" cy="6.5" r="1.5" fill="#86f2f2"/><path d="M32 23H8v5.667A1.333 1.333 0 009.333 30h21.334A1.333 1.333 0 0032 28.667z" fill="#036c70"/><path d="M18 8.33v16.34a1.32 1.32 0 01-1.04 1.29.967.967 0 01-.29.04H8V7h8.67A1.336 1.336 0 0118 8.33z" opacity=".1"/><path d="M17 9.33v16.34a.967.967 0 01-.04.29A1.32 1.32 0 0115.67 27H8V8h7.67A1.336 1.336 0 0117 9.33z" opacity=".2"/><path d="M17 9.33v14.34A1.336 1.336 0 0115.67 25H8V8h7.67A1.336 1.336 0 0117 9.33z" opacity=".2"/><path d="M16 9.33v14.34A1.336 1.336 0 0114.67 25H8V8h6.67A1.336 1.336 0 0116 9.33z" opacity=".2"/><rect y="8" width="16" height="16" rx="1.333" fill="#038387"/><path d="M5.576 15.817a2.749 2.749 0 01-.856-.9 2.47 2.47 0 01-.3-1.239 2.388 2.388 0 01.554-1.6 3.278 3.278 0 011.476-.968 6.221 6.221 0 012.013-.31 7.645 7.645 0 012.652.372v1.873a4.134 4.134 0 00-1.2-.491 5.832 5.832 0 00-1.4-.168 3.038 3.038 0 00-1.442.3.946.946 0 00-.571.866.875.875 0 00.242.614 2.221 2.221 0 00.652.467q.411.2 1.224.54a1.339 1.339 0 01.176.07 10.073 10.073 0 011.543.761 2.761 2.761 0 01.912.919 2.658 2.658 0 01.33 1.386 2.579 2.579 0 01-.519 1.669 2.9 2.9 0 01-1.389.933 6.287 6.287 0 01-1.979.288 10.452 10.452 0 01-1.794-.144 6.207 6.207 0 01-1.456-.421v-1.979a4.69 4.69 0 001.473.7 5.743 5.743 0 001.621.259 2.791 2.791 0 001.47-.312.983.983 0 00.494-.88.941.941 0 00-.277-.674 2.821 2.821 0 00-.765-.533q-.487-.245-1.441-.645a8.155 8.155 0 01-1.443-.753z" fill="#fff"/><path fill="none" d="M0 0h32v32H0z"/></svg>