<svg viewBox="0 0 32 32" fill="none" xmlns="http://www.w3.org/2000/svg"><path fill-rule="evenodd" clip-rule="evenodd" d="M7 24v3.5a.5.5 0 00.5.5h20a.5.5 0 00.5-.5v-19a.5.5 0 00-.5-.5H25v15.5a.5.5 0 01-.5.5H7z" fill="#fff"/><path fill-rule="evenodd" clip-rule="evenodd" d="M6 24v3.5A1.5 1.5 0 007.5 29h20a1.5 1.5 0 001.5-1.5v-19A1.5 1.5 0 0027.5 7H25v1h2.5a.5.5 0 01.5.5v19a.5.5 0 01-.5.5h-20a.5.5 0 01-.5-.5V24H6z" fill="#908F8E"/><path d="M4 4.5a.5.5 0 01.5-.5h20a.5.5 0 01.5.5v19a.5.5 0 01-.5.5h-20a.5.5 0 01-.5-.5v-19z" fill="#fff"/><path fill-rule="evenodd" clip-rule="evenodd" d="M4.5 3h20A1.5 1.5 0 0126 4.5v19a1.5 1.5 0 01-1.5 1.5h-20A1.5 1.5 0 013 23.5v-19A1.5 1.5 0 014.5 3zm0 1a.5.5 0 00-.5.5v19a.5.5 0 00.5.5h20a.5.5 0 00.5-.5v-19a.5.5 0 00-.5-.5h-20z" fill="#908F8E"/><path d="M20 14a.46.46 0 01-.24.39l-8 4.54a.48.48 0 01-.26.07.5.5 0 01-.24-.06.45.45 0 01-.26-.39V14h9z" fill="#BC1948"/><path d="M20 14a.462.462 0 00-.24-.39l-8-4.546a.52.52 0 00-.5 0 .45.45 0 00-.26.39V14h9z" fill="#E8467C"/></svg>