<svg width="20" height="20" fill="none" xmlns="http://www.w3.org/2000/svg"><g clip-path="url(#clip0_7985_270380)"><mask id="a" style="mask-type:alpha" maskUnits="userSpaceOnUse" x="2" y="0" width="15" height="20"><path d="M10 .833c0-.46.373-.833.833-.833h5.334c.46 0 .833.373.833.833v18.334c0 .46-.373.833-.833.833H2.833A.833.833 0 012 19.167v-8.334c0-.46.373-.833.833-.833H6V5.833c0-.46.373-.833.833-.833H10V.833z" fill="#fff"/></mask><g mask="url(#a)"><path d="M17 0v20h-7V0h7z" fill="url(#paint0_linear_7985_270380)"/><path opacity=".25" d="M13 6.333V20.5H6v-15h6.167c.46 0 .833.373.833.833z" fill="#000" stroke="#000" stroke-opacity=".5"/><path d="M13 5.833V20H6V5h6.167c.46 0 .833.373.833.833z" fill="url(#paint1_linear_7985_270380)"/><path d="M2 10v10h7v-9.167A.833.833 0 008.167 10H2z" fill="url(#paint2_linear_7985_270380)"/></g></g><defs><linearGradient id="paint0_linear_7985_270380" x1="8.833" y1="0" x2="17.35" y2="18.956" gradientUnits="userSpaceOnUse"><stop stop-color="#E6AD10"/><stop offset="1" stop-color="#C87E0E"/></linearGradient><linearGradient id="paint1_linear_7985_270380" x1="5.999" y1="5" x2="13.181" y2="19.624" gradientUnits="userSpaceOnUse"><stop stop-color="#F6D751"/><stop offset="1" stop-color="#E6AD10"/></linearGradient><linearGradient id="paint2_linear_7985_270380" x1="1.999" y1="10" x2="5.946" y2="19.821" gradientUnits="userSpaceOnUse"><stop stop-color="#F9E589"/><stop offset="1" stop-color="#F6D751"/></linearGradient><clipPath id="clip0_7985_270380"><path fill="#fff" d="M0 0h20v20H0z"/></clipPath></defs></svg>