<svg viewBox="0 0 32 32" fill="none" xmlns="http://www.w3.org/2000/svg"><g clip-path="url(#a)"><path d="M2 23h28v5c0 1.1-.9 2-2 2H4c-1.1 0-2-.9-2-2v-5z" fill="#5A4CDB"/><path d="M12 17H2v6h10v-6z" fill="#AA72E1"/><path d="M25.564 1.963L3.543 7.047a2 2 0 00-1.499 2.398l.585 2.534a2 2 0 002.399 1.499l22.02-5.084a2 2 0 001.5-2.399l-.586-2.533a2 2 0 00-2.398-1.5z" fill="url(#b)"/><path d="M20 11h8c1.1 0 2 .9 2 2v4H20v-6z" fill="#AA72E1"/><path d="M30 17H12v6h18v-6z" fill="#885EDE"/><path d="M20 11H2v6h18v-6zM2 9v2h2c-1.1 0-2-.9-2-2z" fill="#C689E6"/><path d="M2 21v2h2c-1.1 0-2-.9-2-2z" fill="#5A4CDB"/><path d="M2 15v2h2c-1.1 0-2-.9-2-2z" fill="#AA72E1"/><path d="M28 11H4a2 2 0 01-2-2v19c0 1.1.9 2 2 2h24c1.1 0 2-.9 2-2V13c0-1.1-.9-2-2-2z" fill="url(#c)" style="mix-blend-mode:soft-light"/></g><defs><linearGradient id="b" x1="1.594" y1="7.497" x2="18.411" y2="21.065" gradientUnits="userSpaceOnUse"><stop stop-color="#5A4CDB"/><stop offset="1" stop-color="#AD58DB"/></linearGradient><linearGradient id="c" x1="2" y1="9" x2="33.29" y2="22.201" gradientUnits="userSpaceOnUse"><stop stop-color="#FCCEF5"/><stop offset="1" stop-color="#5A4CDB"/></linearGradient><clipPath id="a"><path fill="#fff" d="M2 0h28v30H2z"/></clipPath></defs></svg>