<svg width="20" height="20" fill="none" xmlns="http://www.w3.org/2000/svg"><rect x="5" y="2" width="13" height="16" rx="2" fill="#33C481"/><path d="M18 10V6h-6V2H6.75A1.75 1.75 0 005 3.75V10h13z" fill="#21A366"/><path d="M5 10h13v4H5v-4z" fill="#107C41"/><path d="M18 16v-2h-6v-4H5v6a2 2 0 002 2h9a2 2 0 002-2z" fill="#185C37"/><path d="M5 6h7a1 1 0 011 1v7a2 2 0 01-2 2H5V6z" fill="#000" fill-opacity=".5"/><rect x="2" y="5" width="10" height="10" rx="1" fill="#107C41"/><path d="M9.586 13H8.36l-1.21-2.126a.861.861 0 01-.066-.142 4.239 4.239 0 01-.063-.21h-.017l-.054.151a4.032 4.032 0 01-.088.21L5.632 13H4.397L6.36 9.991 4.56 7h1.252l1.042 1.955a4.876 4.876 0 01.197.464h.016l.096-.234.113-.247 1.117-1.938h1.155l-1.84 2.976L9.585 13z" fill="#fff"/></svg>